HIERARCHY
ROOT Hips
{
	OFFSET 0.000000 0.000000 0.000000
	CHANNELS 6 Xposition Yposition Zposition Xrotation Yrotation Zrotation
	JOINT LeftUpLeg_virtual
	{
		OFFSET 0.000000 0.000000 0.000000
		CHANNELS 3 Xrotation Yrotation Zrotation
		JOINT LeftUpLeg
		{
			OFFSET 13.026900 -6.336304 -1.092800
			CHANNELS 3 Xrotation Yrotation Zrotation
			JOINT LeftLeg
			{
				OFFSET 0.524474 -46.096886 9.782700
				CHANNELS 3 Xrotation Yrotation Zrotation
				JOINT LeftFoot
				{
					OFFSET -0.524474 -53.427422 -12.948200
					CHANNELS 3 Xrotation Yrotation Zrotation
					JOINT LeftToeBase
					{
						OFFSET 0.192200 -14.009700 16.364100
						CHANNELS 3 Xrotation Yrotation Zrotation
						JOINT LeftToe_End
						{
							OFFSET -1.784700 -0.561700 9.474800
							CHANNELS 3 Xrotation Yrotation Zrotation
							End Site
							{
								OFFSET 0 0 0
							}
						}
					}
				}
			}
		}
	}
	JOINT RightUpLeg_virtual
	{
		OFFSET 0.000000 0.000000 0.000000
		CHANNELS 3 Xrotation Yrotation Zrotation
		JOINT RightUpLeg
		{
			OFFSET -12.883000 -6.336304 -1.092800
			CHANNELS 3 Xrotation Yrotation Zrotation
			JOINT RightLeg
			{
				OFFSET -0.524587 -46.096825 9.782800
				CHANNELS 3 Xrotation Yrotation Zrotation
				JOINT RightFoot
				{
					OFFSET 0.524587 -53.427383 -12.948300
					CHANNELS 3 Xrotation Yrotation Zrotation
					JOINT RightToeBase
					{
						OFFSET -0.192200 -14.009700 16.364100
						CHANNELS 3 Xrotation Yrotation Zrotation
						JOINT RightToe_End
						{
							OFFSET 1.784700 -0.561700 9.474800
							CHANNELS 3 Xrotation Yrotation Zrotation
							End Site
							{
								OFFSET 0 0 0
							}
						}
					}
				}
			}
		}
	}
	JOINT Spine_virtual
	{
		OFFSET 0.000000 0.000000 0.000000
		CHANNELS 3 Xrotation Yrotation Zrotation
		JOINT Spine
		{
			OFFSET 0.072000 7.257294 -0.789700
			CHANNELS 3 Xrotation Yrotation Zrotation
			JOINT Spine1
			{
				OFFSET 0.000000 12.508769 -0.658067
				CHANNELS 3 Xrotation Yrotation Zrotation
				JOINT Spine1_split
				{
					OFFSET 0.000000 12.508769 -0.658067
					CHANNELS 3 Xrotation Yrotation Zrotation
					JOINT Spine2
					{
						OFFSET 0.000000 12.508769 -0.658067
						CHANNELS 3 Xrotation Yrotation Zrotation
						JOINT Neck_virtual
						{
							OFFSET 0.000000 0.000000 0.000000
							CHANNELS 3 Xrotation Yrotation Zrotation
							JOINT Neck
							{
								OFFSET 0.000000 14.033295 7.520400
								CHANNELS 3 Xrotation Yrotation Zrotation
								JOINT Head
								{
									OFFSET 0.000000 8.198502 5.703100
									CHANNELS 3 Xrotation Yrotation Zrotation
									JOINT HeadTop_End
									{
										OFFSET 0.000000 17.760803 13.332701
										CHANNELS 3 Xrotation Yrotation Zrotation
										End Site
										{
											OFFSET 0 0 0
										}
									}
								}
							}
						}
						JOINT LeftShoulder_virtual
						{
							OFFSET 0.000000 0.000000 0.000000
							CHANNELS 3 Xrotation Yrotation Zrotation
							JOINT LeftShoulder
							{
								OFFSET 6.292450 5.785301 -0.669000
								CHANNELS 3 Xrotation Yrotation Zrotation
								JOINT LeftShoulder_split
								{
									OFFSET 6.292450 5.785301 -0.669000
									CHANNELS 3 Xrotation Yrotation Zrotation
									JOINT LeftArm
									{
										OFFSET 13.907140 -6.093903 1.965100
										CHANNELS 3 Xrotation Yrotation Zrotation
										JOINT LeftForeArm
										{
											OFFSET 34.140198 0.000000 0.000000
											CHANNELS 3 Xrotation Yrotation Zrotation
											JOINT LeftHand
											{
												OFFSET 40.960209 0.000000 0.000000
												CHANNELS 3 Xrotation Yrotation Zrotation
												End Site
												{
													OFFSET 0 0 0
												}
											}
										}
									}
								}
							}
						}
						JOINT RightShoulder_virtual
						{
							OFFSET 0.000000 0.000000 0.000000
							CHANNELS 3 Xrotation Yrotation Zrotation
							JOINT RightShoulder
							{
								OFFSET -6.292450 5.785301 -0.669000
								CHANNELS 3 Xrotation Yrotation Zrotation
								JOINT RightShoulder_split
								{
									OFFSET -6.292450 5.785301 -0.669000
									CHANNELS 3 Xrotation Yrotation Zrotation
									JOINT RightArm
									{
										OFFSET -13.907140 -6.093903 1.965100
										CHANNELS 3 Xrotation Yrotation Zrotation
										JOINT RightForeArm
										{
											OFFSET -34.140198 0.000000 0.000000
											CHANNELS 3 Xrotation Yrotation Zrotation
											JOINT RightHand
											{
												OFFSET -40.960209 0.000000 0.000000
												CHANNELS 3 Xrotation Yrotation Zrotation
												End Site
												{
													OFFSET 0 0 0
												}
											}
										}
									}
								}
							}
						}
					}
				}
			}
		}
	}
}
MOTION
Frames: 5
Frame Time: 0.03333333
0.809048 112.201965 -56.655003 0.000000 0.000000 0.000000 173.831525 -67.203529 176.670411 -27.616594 10.456606 15.280410 31.656503 -0.099370 -0.999707 -1.841848 -1.574775 -0.043963 0.352844 4.474846 -5.074781 0.000000 0.000000 0.000000 173.462886 -65.679208 176.618324 -11.828026 -12.598698 6.427999 16.731464 6.548590 -3.311108 -8.561200 3.509945 -7.910208 -2.167349 -5.755496 -1.094495 0.000000 0.000000 0.000000 171.990529 -66.655960 173.596279 4.056915 2.096487 4.015844 -3.383484 1.328500 -2.315029 0.679923 -1.474260 0.291357 0.000000 0.000000 0.000000 -5.032093 1.571764 -1.982681 1.627258 19.522692 7.575493 4.906915 27.189620 -15.163768 0.000000 0.000000 0.000000 -5.295735 2.172540 -2.229914 0.878393 0.501005 0.887172 -0.471825 -1.197107 -0.850838 12.619507 0.514631 -67.079903 7.691841 -21.268850 -7.982634 0.000000 0.000000 0.000000 -4.469007 1.855524 -2.756946 2.751670 -5.414583 17.730836 -5.438036 -1.087915 -0.846457 11.130445 32.879533 53.756642 15.134485 29.922154 -1.123294 0.000000 0.000000 0.000000 
-0.255178 112.740494 -58.409328 0.000000 0.000000 0.000000 173.617726 -61.998740 176.177695 -28.234812 3.502022 11.279286 31.878535 0.044249 -0.387829 -0.706862 -1.097105 -0.370484 -0.699428 4.930553 -5.269475 0.000000 0.000000 0.000000 173.208680 -59.779257 176.141331 -11.041084 -10.000157 8.094116 17.474834 9.338050 -2.979283 -8.604221 3.290293 -9.928312 -2.456118 -5.619328 -1.164085 0.000000 0.000000 0.000000 172.545578 -60.979403 173.687189 4.455229 2.630134 3.866057 -3.288414 1.786932 -2.417758 0.723217 -1.403684 0.357427 0.000000 0.000000 0.000000 -5.011408 1.989500 -2.133717 1.330390 17.754558 7.558598 4.136937 24.718786 -14.052059 0.000000 0.000000 0.000000 -5.332621 2.600240 -2.322976 0.782506 0.349803 1.287479 -0.169342 -1.186521 -0.781823 13.769286 1.316885 -68.631079 8.793441 -20.242082 -8.051126 0.000000 0.000000 0.000000 -4.414420 2.258957 -2.886711 2.777757 -5.733052 17.891732 -5.341819 -1.222898 -0.641088 10.089410 34.977515 53.849556 15.355092 28.979010 -1.570086 0.000000 0.000000 0.000000 
-1.470486 113.431068 -60.344013 0.000000 0.000000 0.000000 173.431986 -56.799129 175.689828 -29.785881 -2.638721 7.572353 30.983312 -0.427797 0.259296 0.612880 -1.089710 -1.825637 -2.370738 5.372107 -5.386587 0.000000 0.000000 0.000000 173.260056 -53.898105 176.058385 -10.054082 -7.366070 9.598443 18.749100 11.904997 -2.686059 -8.532103 3.054799 -11.914030 -2.327343 -5.454339 -1.250703 0.000000 0.000000 0.000000 173.166209 -55.403496 174.000012 4.857920 3.111138 3.423791 -3.065473 2.155095 -2.295681 0.796085 -1.087779 0.371166 0.000000 0.000000 0.000000 -4.866040 2.330674 -2.081564 1.105160 15.684343 7.128674 2.931872 21.383912 -12.306859 0.000000 0.000000 0.000000 -5.261579 2.947226 -2.176747 0.683876 0.182909 1.599167 0.152188 -1.229551 -0.756331 14.632632 1.828477 -70.179265 9.590540 -18.407975 -8.254807 0.000000 0.000000 0.000000 -4.261095 2.576525 -2.772368 2.817862 -6.073855 17.851995 -5.229729 -1.292996 -0.390920 8.863659 37.304571 54.258084 15.397181 27.688486 -1.985598 0.000000 0.000000 0.000000 
-2.822605 114.044624 -62.263752 0.000000 0.000000 0.000000 173.534739 -51.429149 175.604792 -32.055348 -7.306862 4.518738 29.408349 -1.260882 0.711146 1.947183 -1.356397 -3.908315 -3.629257 5.757267 -5.633285 0.000000 0.000000 0.000000 173.552812 -48.069994 176.262362 -9.155510 -4.930344 10.867502 20.494201 14.462731 -2.537909 -7.791862 2.911998 -13.380259 -2.625635 -5.228856 -1.591292 0.000000 0.000000 0.000000 173.903160 -50.137079 174.691937 5.298492 3.514306 2.771126 -2.729706 2.420004 -1.980385 0.917353 -0.566374 0.274812 0.000000 0.000000 0.000000 -4.595851 2.579665 -1.849923 1.051916 13.353821 6.317647 1.517120 17.331043 -10.141502 0.000000 0.000000 0.000000 -5.076831 3.205340 -1.826130 0.592282 0.099701 1.782241 0.524983 -1.413647 -0.744524 15.349535 2.179846 -71.522763 10.017100 -16.315573 -8.571099 0.000000 0.000000 0.000000 -4.020422 2.800866 -2.458769 2.868696 -6.409769 17.550878 -5.040305 -1.266320 -0.090091 7.530594 39.669483 55.038081 15.296429 26.412205 -2.402446 0.000000 0.000000 0.000000 
-4.185721 114.577827 -64.443405 0.000000 0.000000 0.000000 173.855294 -45.860540 175.867235 -34.939877 -10.318368 2.215292 27.764499 -2.082381 0.820688 3.565950 -1.489758 -6.072821 -3.380969 6.028839 -6.182665 0.000000 0.000000 0.000000 174.032141 -42.474488 176.604909 -8.346025 -2.913564 11.853440 21.938484 17.023154 -2.531750 -6.313168 3.104415 -14.205631 -3.471666 -4.877412 -2.225490 0.000000 0.000000 0.000000 174.669097 -45.123850 175.587074 5.773883 3.821922 2.069502 -2.323197 2.583249 -1.555287 0.860068 0.126149 0.172609 0.000000 0.000000 0.000000 -4.235446 2.732383 -1.503764 1.171431 10.844506 5.263427 0.149484 12.823100 -7.797731 0.000000 0.000000 0.000000 -4.775622 3.380877 -1.360568 0.521934 0.164005 1.791340 0.933224 -1.803489 -0.742504 16.081160 2.488365 -72.502772 10.130619 -14.607601 -8.926529 0.000000 0.000000 0.000000 -3.703974 2.929822 -2.040551 2.925759 -6.729642 16.988810 -4.712241 -1.157261 0.202317 6.267801 41.893607 56.072366 15.097495 25.473392 -2.856943 0.000000 0.000000 0.000000 
